<svg width="34" height="28" viewBox="0 0 34 28" fill="none" xmlns="http://www.w3.org/2000/svg">
<path d="M17 5.5C14 3 9 2.5 3 4.5V23C9 21 14 21.5 17 24V5.5Z" fill="url(#paint0_linear_32_14)" stroke="#6C5CE7" stroke-opacity="0.3" stroke-width="1.5" stroke-linecap="round" stroke-linejoin="round"/>
<path d="M17 5.5C20 3 25 2.5 31 4.5V23C25 21 20 21.5 17 24V5.5Z" fill="url(#paint1_linear_32_14)" stroke="#6C5CE7" stroke-opacity="0.3" stroke-width="1.5" stroke-linecap="round" stroke-linejoin="round"/>
<path d="M17 5V24" stroke="url(#paint2_linear_32_14)" stroke-width="1.5" stroke-linecap="round"/>
<path d="M8 10L14.5 9.2" stroke="white" stroke-opacity="0.15" stroke-linecap="round"/>
<path d="M8 13.5L14.5 12.7" stroke="white" stroke-opacity="0.15" stroke-linecap="round"/>
<path d="M26 10L19.5 9.2" stroke="white" stroke-opacity="0.15" stroke-linecap="round"/>
<path d="M26 13.5L19.5 12.7" stroke="white" stroke-opacity="0.15" stroke-linecap="round"/>
<path d="M17 7C18.1046 7 19 6.10457 19 5C19 3.89543 18.1046 3 17 3C15.8954 3 15 3.89543 15 5C15 6.10457 15.8954 7 17 7Z" fill="#6C5CE7"/>
<defs>
<linearGradient id="paint0_linear_32_14" x1="3" y1="4" x2="17" y2="24" gradientUnits="userSpaceOnUse">
<stop stop-color="#2A2A3E"/>
<stop offset="1" stop-color="#1C1C2A"/>
</linearGradient>
<linearGradient id="paint1_linear_32_14" x1="31" y1="4" x2="17" y2="24" gradientUnits="userSpaceOnUse">
<stop stop-color="#2A2A3E"/>
<stop offset="1" stop-color="#1C1C2A"/>
</linearGradient>
<linearGradient id="paint2_linear_32_14" x1="17" y1="5" x2="17" y2="24" gradientUnits="userSpaceOnUse">
<stop stop-color="#6C5CE7"/>
<stop offset="1" stop-color="#A78BFA" stop-opacity="0.4"/>
</linearGradient>
</defs>
</svg>
